<svg width="265" height="121" viewBox="0 0 265 121" fill="none" xmlns="http://www.w3.org/2000/svg">
<path d="M89.8 49V31.96H96.208C97.6 31.96 98.792 32.456 99.784 33.448C100.776 34.424 101.272 35.616 101.272 37.024C101.272 38.16 100.864 39.136 100.048 39.952C100.784 40.336 101.368 40.88 101.8 41.584C102.248 42.288 102.472 43.088 102.472 43.984C102.472 45.392 101.976 46.584 100.984 47.56C99.992 48.52 98.76 49 97.288 49H89.8ZM93.616 45.496H96.976C97.488 45.496 97.912 45.336 98.248 45.016C98.584 44.68 98.752 44.272 98.752 43.792C98.752 43.312 98.576 42.912 98.224 42.592C97.888 42.256 97.464 42.088 96.952 42.088H93.616V45.496ZM93.616 38.848H95.776C96.288 38.848 96.712 38.688 97.048 38.368C97.384 38.048 97.552 37.648 97.552 37.168C97.552 36.688 97.384 36.28 97.048 35.944C96.712 35.608 96.288 35.44 95.776 35.44H93.616V38.848ZM110.386 49.264C108.578 49.264 107.058 48.696 105.826 47.56C104.61 46.408 104.002 44.888 104.002 43C104.002 41.208 104.602 39.72 105.802 38.536C107.002 37.336 108.506 36.736 110.314 36.736C111.994 36.736 113.41 37.248 114.562 38.272C115.714 39.296 116.29 40.736 116.29 42.592C116.29 43.056 116.266 43.48 116.218 43.864H107.506C107.602 44.552 107.93 45.08 108.49 45.448C109.05 45.8 109.698 45.976 110.434 45.976C111.09 45.976 111.674 45.848 112.186 45.592C112.698 45.32 113.082 44.992 113.338 44.608L116.026 46.624C115.45 47.44 114.674 48.088 113.698 48.568C112.722 49.032 111.618 49.264 110.386 49.264ZM107.602 41.488H112.69C112.546 40.896 112.242 40.448 111.778 40.144C111.314 39.84 110.794 39.688 110.218 39.688C109.61 39.688 109.058 39.84 108.562 40.144C108.066 40.432 107.746 40.88 107.602 41.488ZM118.574 49V37H122.198V38.8C122.39 38.256 122.75 37.8 123.278 37.432C123.806 37.048 124.398 36.856 125.054 36.856C125.47 36.856 125.862 36.904 126.23 37V40.672C125.67 40.48 125.134 40.384 124.622 40.384C123.854 40.384 123.254 40.656 122.822 41.2C122.406 41.728 122.198 42.432 122.198 43.312V49H118.574ZM143.278 49V42.784C143.278 40.944 142.702 40.024 141.55 40.024C140.174 40.024 139.454 41.024 139.39 43.024V49H135.766V42.784C135.766 40.944 135.19 40.024 134.038 40.024C133.366 40.024 132.838 40.288 132.454 40.816C132.07 41.328 131.878 42.112 131.878 43.168V49H128.254V37H131.878V38.224C132.646 37.232 133.67 36.736 134.95 36.736C136.63 36.736 137.862 37.44 138.646 38.848C138.998 38.16 139.526 37.64 140.23 37.288C140.934 36.92 141.638 36.736 142.342 36.736C143.798 36.736 144.918 37.216 145.702 38.176C146.502 39.136 146.902 40.464 146.902 42.16V49H143.278ZM154.114 49.264C152.658 49.264 151.538 48.776 150.754 47.8C149.97 46.824 149.578 45.504 149.578 43.84V37H153.202V43.216C153.202 45.056 153.818 45.976 155.05 45.976C156.554 45.976 157.306 44.928 157.306 42.832V37H160.93V49H157.306V47.776C156.618 48.768 155.554 49.264 154.114 49.264ZM168.75 49.264C167.198 49.264 165.878 48.648 164.79 47.416C163.718 46.184 163.182 44.712 163.182 43C163.182 41.288 163.718 39.816 164.79 38.584C165.878 37.352 167.198 36.736 168.75 36.736C170.126 36.736 171.214 37.224 172.014 38.2V31H175.638V49H172.014V47.8C171.214 48.776 170.126 49.264 168.75 49.264ZM167.574 45.136C168.086 45.696 168.75 45.976 169.566 45.976C170.382 45.976 171.038 45.696 171.534 45.136C172.046 44.576 172.302 43.864 172.302 43C172.302 42.136 172.046 41.424 171.534 40.864C171.038 40.304 170.382 40.024 169.566 40.024C168.75 40.024 168.086 40.304 167.574 40.864C167.078 41.424 166.83 42.136 166.83 43C166.83 43.864 167.078 44.576 167.574 45.136ZM183.469 49.264C181.917 49.264 180.597 48.648 179.509 47.416C178.437 46.184 177.901 44.712 177.901 43C177.901 41.288 178.437 39.816 179.509 38.584C180.597 37.352 181.917 36.736 183.469 36.736C184.845 36.736 185.933 37.224 186.733 38.2V37H190.357V49H186.733V47.8C185.933 48.776 184.845 49.264 183.469 49.264ZM182.293 45.136C182.805 45.696 183.469 45.976 184.285 45.976C185.101 45.976 185.757 45.696 186.253 45.136C186.765 44.576 187.021 43.864 187.021 43C187.021 42.136 186.765 41.424 186.253 40.864C185.757 40.304 185.101 40.024 184.285 40.024C183.469 40.024 182.805 40.304 182.293 40.864C181.797 41.424 181.549 42.136 181.549 43C181.549 43.864 181.797 44.576 182.293 45.136Z" fill="white"/>
<path d="M197.386 49L204.922 31.96H206.77L214.33 49H212.002L209.794 44.032H201.85L199.69 49H197.386ZM205.81 34.984L202.738 42.016H208.906L205.81 34.984ZM216.413 49V31H218.477V49H216.413ZM224.453 54.016H222.389V37H224.453V38.848C224.869 38.24 225.453 37.744 226.205 37.36C226.973 36.96 227.797 36.76 228.677 36.76C230.341 36.76 231.733 37.368 232.853 38.584C233.989 39.8 234.557 41.272 234.557 43C234.557 44.728 233.989 46.2 232.853 47.416C231.733 48.632 230.341 49.24 228.677 49.24C227.797 49.24 226.973 49.048 226.205 48.664C225.453 48.264 224.869 47.76 224.453 47.152V54.016ZM225.437 46.096C226.205 46.928 227.181 47.344 228.365 47.344C229.549 47.344 230.525 46.928 231.293 46.096C232.061 45.264 232.445 44.232 232.445 43C232.445 41.768 232.061 40.736 231.293 39.904C230.525 39.072 229.549 38.656 228.365 38.656C227.181 38.656 226.205 39.072 225.437 39.904C224.669 40.736 224.285 41.768 224.285 43C224.285 44.232 224.669 45.264 225.437 46.096ZM239.594 49H237.53V31H239.594V38.848C240.41 37.456 241.682 36.76 243.41 36.76C244.77 36.76 245.866 37.2 246.698 38.08C247.53 38.96 247.946 40.136 247.946 41.608V49H245.906V41.92C245.906 40.912 245.65 40.12 245.138 39.544C244.626 38.952 243.938 38.656 243.074 38.656C242.082 38.656 241.25 39.048 240.578 39.832C239.922 40.616 239.594 41.688 239.594 43.048V49ZM256.607 49.24C254.943 49.24 253.543 48.632 252.407 47.416C251.287 46.2 250.727 44.728 250.727 43C250.727 41.272 251.287 39.8 252.407 38.584C253.543 37.368 254.943 36.76 256.607 36.76C257.487 36.76 258.303 36.96 259.055 37.36C259.823 37.744 260.415 38.24 260.831 38.848V37H262.895V49H260.831V47.152C260.415 47.76 259.823 48.264 259.055 48.664C258.303 49.048 257.487 49.24 256.607 49.24ZM256.919 47.344C258.103 47.344 259.079 46.928 259.847 46.096C260.615 45.264 260.999 44.232 260.999 43C260.999 41.768 260.615 40.736 259.847 39.904C259.079 39.072 258.103 38.656 256.919 38.656C255.719 38.656 254.735 39.072 253.967 39.904C253.199 40.736 252.815 41.768 252.815 43C252.815 44.232 253.199 45.264 253.967 46.096C254.735 46.928 255.719 47.344 256.919 47.344Z" fill="white" fill-opacity="0.24"/>
<g filter="url(#filter0_d_3:1169)">
<path fill-rule="evenodd" clip-rule="evenodd" d="M66.2158 30.3888C64.316 27.2037 59.684 27.2037 57.7842 30.3888L48.6946 45.6278C46.7541 48.8811 49.1095 53 52.9104 53H71.0896C74.8905 53 77.2459 48.8811 75.3054 45.6278L66.2158 30.3888ZM66.2158 36.9842C64.316 33.7991 59.684 33.7991 57.7842 36.9842L54.5955 42.3301C52.655 45.5834 55.0104 49.7023 58.8113 49.7023H65.1887C68.9896 49.7023 71.345 45.5834 69.4045 42.3301L66.2158 36.9842Z" fill="#FA2C5D"/>
</g>
<defs>
<filter id="filter0_d_3:1169" x="0" y="0" width="124" height="121" filterUnits="userSpaceOnUse" color-interpolation-filters="sRGB">
<feFlood flood-opacity="0" result="BackgroundImageFix"/>
<feColorMatrix in="SourceAlpha" type="matrix" values="0 0 0 0 0 0 0 0 0 0 0 0 0 0 0 0 0 0 127 0" result="hardAlpha"/>
<feOffset dy="20"/>
<feGaussianBlur stdDeviation="24"/>
<feComposite in2="hardAlpha" operator="out"/>
<feColorMatrix type="matrix" values="0 0 0 0 0 0 0 0 0 0 0 0 0 0 0 0 0 0 0.08 0"/>
<feBlend mode="normal" in2="BackgroundImageFix" result="effect1_dropShadow_3:1169"/>
<feBlend mode="normal" in="SourceGraphic" in2="effect1_dropShadow_3:1169" result="shape"/>
</filter>
</defs>
</svg>
