<svg width="54" height="9" viewBox="0 0 54 9" fill="none" xmlns="http://www.w3.org/2000/svg">
<path d="M18.2123 1.02987H16.2625V2.79993H15.4604V4.55617H16.2625V7.08681C16.2625 7.33572 16.3593 7.57081 16.5529 7.76441C16.7741 7.94418 16.9954 8.04098 17.2581 8.04098H19.3462V6.29857H18.6686C18.3782 6.29857 18.24 6.13263 18.24 5.8284V4.55617H18.9867V2.79993H18.24L18.2123 1.02987ZM25.1819 0.559695H23.2321V7.10064C23.2321 7.73675 23.5363 8.04098 24.1863 8.04098H27.0903V6.29857H25.6383C25.3479 6.29857 25.1819 6.13263 25.1819 5.8284V0.559695ZM51.2351 2.67548C50.5851 2.67548 50.2671 2.9797 50.2671 3.62965V8.04098H52.2169V4.8604C52.2169 4.57 52.369 4.43171 52.6594 4.43171H53.6827V2.67548H51.2351ZM1.00949 0.559695C0.732917 0.559695 0.511659 0.656497 0.290401 0.850097C0.110629 1.0437 0 1.27878 0 1.55536V8.04098H1.97749V5.37206H3.02847V3.61582H1.97749V2.77228C1.97749 2.45422 2.14344 2.3021 2.42001 2.3021H3.88584V0.545868H1.00949V0.559695ZM8.22803 3.39456C7.68872 2.85525 7.03877 2.5925 6.30585 2.5925C5.51762 2.5925 4.88151 2.85525 4.35602 3.39456C3.8167 3.93388 3.54013 4.59765 3.54013 5.3444C3.54013 6.13263 3.8167 6.76875 4.35602 7.29424C4.89533 7.83355 5.54528 8.12395 6.30585 8.12395C7.03877 8.12395 7.68872 7.83355 8.22803 7.29424C8.76735 6.75492 9.04392 6.10497 9.04392 5.3444C9.04392 4.59765 8.76735 3.94771 8.22803 3.39456ZM5.47614 5.3444C5.47614 4.81891 5.76654 4.55617 6.30585 4.55617C6.83134 4.55617 7.10791 4.81891 7.10791 5.3444C7.10791 5.88372 6.83134 6.14646 6.30585 6.14646C5.75271 6.13263 5.47614 5.86989 5.47614 5.3444ZM14.2711 3.39456C13.7318 2.85525 13.0819 2.5925 12.349 2.5925C11.5746 2.5925 10.9246 2.85525 10.3991 3.39456C9.85981 3.93388 9.58324 4.59765 9.58324 5.3444C9.58324 6.13263 9.85981 6.76875 10.3991 7.29424C10.9384 7.83355 11.5884 8.12395 12.349 8.12395C13.0819 8.12395 13.7318 7.83355 14.2711 7.29424C14.8105 6.75492 15.087 6.10497 15.087 5.3444C15.087 4.59765 14.8243 3.94771 14.2711 3.39456ZM11.5192 5.3444C11.5192 4.81891 11.8096 4.55617 12.349 4.55617C12.8883 4.55617 13.151 4.81891 13.151 5.3444C13.151 5.88372 12.8883 6.14646 12.349 6.14646C11.8096 6.13263 11.5192 5.86989 11.5192 5.3444ZM32.2345 3.39456C31.6952 2.85525 31.0453 2.5925 30.2847 2.5925C29.5241 2.5925 28.888 2.85525 28.3349 3.39456C27.7955 3.93388 27.5328 4.59765 27.5328 5.3444C27.5328 6.13263 27.7955 6.76875 28.3349 7.29424C28.8742 7.83355 29.5241 8.12395 30.2847 8.12395C31.0591 8.12395 31.709 7.83355 32.2345 7.29424C32.7877 6.75492 33.0366 6.1188 33.0366 5.3444C33.0366 4.59765 32.7738 3.94771 32.2345 3.39456ZM29.7177 4.79126C29.8837 4.63914 30.0634 4.57 30.2709 4.57C30.8102 4.57 31.0729 4.83274 31.0729 5.35823C31.0729 5.89754 30.8102 6.16029 30.2709 6.16029C29.7315 6.16029 29.4826 5.89754 29.4826 5.35823C29.4965 5.1508 29.5656 4.97103 29.7177 4.79126ZM34.4609 3.39456C33.9216 3.93388 33.6451 4.59765 33.6451 5.3444C33.6451 6.13263 33.9216 6.76875 34.4609 7.29424C35.0003 7.83355 35.6502 8.12395 36.4108 8.12395C37.3926 8.12395 38.167 7.69527 38.7202 6.85172L37.0607 5.78692C36.8948 6.022 36.7012 6.13263 36.4108 6.13263C35.8576 6.13263 35.5811 5.86989 35.5811 5.33057C35.5811 4.80508 35.8715 4.54234 36.4108 4.54234C36.7012 4.54234 36.8948 4.6668 37.0607 4.91571L38.7202 3.85091C38.167 3.00736 37.3926 2.57868 36.4108 2.57868C35.6364 2.60633 35.0003 2.86908 34.4609 3.39456ZM53.4338 7.01766C53.1019 7.01766 52.936 7.18361 52.936 7.52932C52.936 7.87504 53.1019 8.04098 53.4338 8.04098C53.7795 8.04098 53.9455 7.87504 53.9455 7.52932C53.9455 7.18361 53.7795 7.01766 53.4338 7.01766ZM53.019 7.52932C53.019 7.25275 53.1434 7.11446 53.4338 7.11446C53.7242 7.11446 53.8625 7.26658 53.8625 7.52932C53.8625 7.81972 53.7104 7.95801 53.4338 7.95801C53.1434 7.95801 53.019 7.8059 53.019 7.52932ZM53.6966 7.40487C53.6966 7.29424 53.6412 7.23892 53.503 7.23892H53.2402V7.79207H53.3232V7.54315H53.42L53.5859 7.79207H53.6966L53.5168 7.54315C53.6412 7.55698 53.6966 7.5155 53.6966 7.40487ZM53.3232 7.47401V7.32189H53.4753L53.6274 7.36338C53.6274 7.43252 53.5583 7.46018 53.4338 7.46018H53.3232V7.47401ZM41.154 4.22428V0.545868H39.1765V8.02715H41.154V6.45069L42.4677 8.02715H44.7494L42.4262 5.2476L44.2654 2.99353H42.1358L41.154 4.22428ZM49.7277 5.13697C49.7277 4.68063 49.548 4.19662 49.1746 3.65731C48.6906 2.99353 48.0406 2.63399 47.1694 2.5925C46.1185 2.53719 45.3164 2.89673 44.7356 3.71262C44.3761 4.21045 44.1963 4.7636 44.1963 5.3444C44.1963 6.13263 44.4867 6.76875 45.026 7.29424C45.5653 7.83355 46.2153 8.12395 46.9758 8.12395C47.612 8.12395 48.1789 7.94418 48.6629 7.55698L49.3267 6.85172L47.7364 5.8284L47.5428 6.04966C47.2801 6.27092 46.9897 6.3124 46.6716 6.20177L46.2706 5.89755L49.7277 5.13697ZM46.6993 4.45937C47.0865 4.34874 47.3907 4.44554 47.6396 4.74977L46.1046 5.09548C46.2153 4.79125 46.395 4.59765 46.6993 4.45937Z" fill="white"/>
</svg>
