<svg width="124" height="119" viewBox="0 0 124 119" fill="none" xmlns="http://www.w3.org/2000/svg">
<g filter="url(#filter0_d_3:1198)">
<path d="M51.3317 40.3351L51.6221 40.7638C51.3179 41.0957 50.8892 41.2893 50.3499 41.3723L50.1978 41.5659L50.1701 41.8839L50.5435 43.1977L51.1796 44.3869C51.3594 44.6773 52.3274 45.4794 54.0836 46.8208L54.8442 47.6367L55.3973 47.692C55.826 47.3324 56.1994 47.125 56.5589 47.0835L56.6281 45.3826L56.2409 42.8381L56.3653 38.4544L56.7525 37.9151C56.6419 38.6619 56.6419 39.2288 56.7249 39.5746V47.692L57.0706 48.2313L57.278 44.3593C57.3887 42.2988 57.4025 40.9713 57.361 40.3904L57.278 39.4224L57.4025 38.7034L57.9833 37.9428L57.762 40.1139L57.4025 48.8259L57.1674 50.5821H57.9141L58.246 45.3273C58.3428 42.4647 58.4396 40.6117 58.5364 39.7958C58.5779 39.3118 58.73 38.6066 58.9513 37.6939L59.0896 37.5003L59.1587 37.6939L59.1726 38.247L58.7992 47.443L58.5918 48.8812L58.6471 50.5821H59.4076L60.4033 38.1917L61.0256 37.9428L60.1959 50.5821H61.316L62.118 38.1917L62.4499 37.763L62.7957 38.1226L62.2148 50.5821H63.1552L63.3626 44.5252L64.0402 44.8156L63.8881 50.5821H64.8561V46.641L65.1189 44.8986C65.2571 44.8986 65.4093 44.8018 65.5475 44.5805L65.2018 50.5821H65.8241L66.4741 40.5979C66.5017 39.5884 66.3634 38.5927 66.0454 37.6386L66.557 38.0811L66.9166 40.9159L66.1837 50.5821H66.7506L66.7783 50.1811L67.608 49.9599C68.1197 49.5173 70.1386 48.3143 73.7064 46.3368L75.5318 44.4837L75.3797 43.8061L74.0245 41.8701L72.3512 40.4319L71.9087 39.8788L69.8621 38.4268L67.2623 37.2514C66.8198 37.0301 66.1975 36.8227 65.3954 36.5876L65.188 36.4493L64.3168 36.1312C63.6669 35.9515 63.736 35.7855 64.5104 35.5781C64.9253 35.4398 65.1327 35.2877 65.1603 35.0941C65.1603 34.942 65.0912 34.776 64.9667 34.6239L64.9944 34.375L65.271 33.9048C65.188 33.6283 65.1603 33.3655 65.1603 33.1028L65.5199 32.9092L65.6305 32.6741L65.5475 32.4528L65.0082 31.9965C65.0221 31.7061 64.9944 31.3604 64.8699 31.0008L64.704 30.4477C64.6763 30.3094 64.8008 29.9775 65.0635 29.4382L64.7731 28.5808L64.5519 28.3734L63.7498 28.401C63.5009 28.1798 63.0861 28.0553 62.4776 28L61.3575 28.2351L60.4033 28.3181L59.864 28.7606L59.1449 29.1478C58.896 29.6594 58.6609 29.9498 58.3843 30.0328L58.0248 31.0285L58.7853 33.808L59.463 34.776L59.8087 35.0941V35.6887H59.6427L58.7853 36.3663L56.2409 36.7259L53.1294 38.3162L48.6213 41.2478L48.2203 41.9254L48.1926 43.0594L48.9947 44.622L50.3499 46.0049C52.1338 47.1112 53.9177 48.1898 55.7016 49.2546L56.1026 49.7109L55.8122 50.5268H56.8079C56.96 50.1535 57.0291 49.7663 57.0153 49.3652C57.0153 49.061 56.9323 48.7706 56.7525 48.494H55.5356L54.775 48.1345C54.3325 47.7888 53.7794 47.443 53.1571 47.0835C52.5625 46.7378 51.9678 46.3229 51.3456 45.8804C50.2393 45.0092 49.4649 44.1795 49.0362 43.3913L48.8841 42.7828L48.9117 42.0914L49.1053 41.718L49.8659 40.9851L51.1381 40.266L51.3317 40.3351ZM52.6316 40.8053V40.5564L55.8399 38.6204L55.8537 38.897L53.1848 40.8606L52.8667 40.9713L52.6316 40.8053ZM52.2168 39.699L52.1476 39.4778L56.0196 37.4035L55.826 37.763L53.2401 39.2703L52.2168 39.699ZM55.8813 40.4043L55.7707 40.6117L53.6549 41.8563L53.5443 42.0361L53.4337 41.8563L53.5028 41.6489L55.3697 40.183L55.8537 40.1415L55.8813 40.4043ZM55.5771 41.6489C55.6186 42.285 55.6739 42.8934 55.7569 43.4881L56.1579 46.6963L55.8537 46.7793L55.4388 46.8069C54.8165 46.2814 54.2357 45.7006 53.6964 45.0507C53.2539 44.4699 52.8529 43.8614 52.521 43.1977L52.6178 43.0317C53.1571 42.6722 53.7241 42.3541 54.291 42.0361C54.6644 41.8563 55.0655 41.6765 55.4803 41.5244L55.5771 41.6489ZM70.5812 40.9159L70.5535 41.1234L70.1525 41.0404L67.9952 39.699H67.6495L67.29 39.4086L67.1793 38.9661C67.5389 39.0767 67.8846 39.2288 68.2026 39.4086L70.5812 40.9159ZM71.1343 40.2798L70.5812 40.1L68.2718 38.4959C67.5942 38.2055 67.2346 38.0672 67.1655 38.0672L67.124 37.7354L67.8569 37.8322L71.3141 40.1692L71.1343 40.2798ZM64.2477 31.2221L64.137 31.3742L63.1829 31.8029L63.4041 32.1762L64.2753 32.3284L64.8146 32.2177L65.2157 32.5634L64.8699 32.8124L64.5934 32.923L64.8699 33.2272V33.3655L64.4274 33.4623L64.137 33.7665L64.1647 34.0293L64.5657 33.9325L64.7317 33.9187L64.8008 34.0293L64.5104 34.1676C64.4689 34.1676 64.3998 34.2644 64.3306 34.4856H64.4551L64.621 34.8037C64.6487 34.9005 64.5381 34.9696 64.3583 35.0111L63.0861 34.776L61.7308 34.8037L61.2054 35.1217V35.343L61.8968 35.91L61.8415 36.8641C61.8415 37.0024 61.7308 36.9748 61.4819 36.8227L60.1544 35.9929L60.182 35.1909L60.348 35.1632L60.7075 33.5868L60.2374 32.9783L60.182 32.2592L60.4171 31.9965L60.9011 31.9135L61.4958 32.4252H61.8138L61.9521 31.8167L63.2243 31.0146H64.0955L64.2477 31.2221ZM61.3436 38.413C61.3436 38.3162 61.399 38.2608 61.5096 38.2608C61.6064 38.2608 61.6617 38.3162 61.6617 38.413C61.6617 38.5374 61.6202 38.5789 61.5096 38.5789C61.399 38.5789 61.3436 38.5374 61.3436 38.413ZM61.5787 40.3766C61.5787 40.5011 61.5234 40.5564 61.4128 40.5564C61.3022 40.5564 61.233 40.5011 61.233 40.3766C61.233 40.266 61.3022 40.2107 61.4128 40.2107C61.5234 40.2107 61.5787 40.266 61.5787 40.3766ZM63.7775 38.1364L63.8881 38.1087L64.3306 39.0352L64.3583 39.6714L64.2753 41.1095H63.5424L63.7775 38.1364ZM65.2018 38.5789L65.6858 38.2608L65.6029 41.1234H65.1327L65.2018 38.5789ZM69.8206 41.7733L69.9865 42.0775L69.6961 42.285L68.2303 41.5382L67.4559 40.2936L69.8206 41.7733ZM68.0229 43.1977L68.092 42.4786C68.3824 42.5615 68.6313 42.6583 68.8664 42.7966C69.6685 43.2668 70.4291 43.7508 71.162 44.2901C70.3184 45.1613 69.4472 45.9772 68.493 46.7101C68.0229 47.0973 67.5112 47.4154 66.9442 47.6505L67.4282 46.2123L68.0229 43.1977ZM67.3591 42.4371L67.3453 41.3999C67.3453 41.2202 67.4144 41.1787 67.5527 41.3031C67.608 41.3999 67.6633 41.6074 67.6772 41.9531L67.4697 43.8753L67.1517 45.2166L67.3591 42.4371ZM65.755 41.9254V42.0914H63.5562V41.9254H65.755ZM65.755 41.4414V41.6489H63.5562V41.4414H65.755L66.9442 48.978L66.9581 47.9824L68.0367 47.8579L71.8949 44.3454L70.6227 43.0455L71.4524 41.8563L71.7843 41.8839L73.416 43.9997L73.3192 44.4284C72.4619 45.2305 71.563 45.9772 70.5812 46.6548C69.3919 47.4984 68.2026 48.2866 66.9442 48.978L65.755 41.4414ZM60.9703 32.1762L60.4586 32.1624L60.3342 32.4113L60.4171 32.6049L60.6107 32.5773L60.7214 32.7847L60.8873 32.9783L61.0532 32.9645L61.1362 32.5634L60.9703 32.1762Z" fill="#FA2C5D"/>
</g>
<defs>
<filter id="filter0_d_3:1198" x="0.192627" y="0" width="123.339" height="118.582" filterUnits="userSpaceOnUse" color-interpolation-filters="sRGB">
<feFlood flood-opacity="0" result="BackgroundImageFix"/>
<feColorMatrix in="SourceAlpha" type="matrix" values="0 0 0 0 0 0 0 0 0 0 0 0 0 0 0 0 0 0 127 0" result="hardAlpha"/>
<feOffset dy="20"/>
<feGaussianBlur stdDeviation="24"/>
<feComposite in2="hardAlpha" operator="out"/>
<feColorMatrix type="matrix" values="0 0 0 0 0 0 0 0 0 0 0 0 0 0 0 0 0 0 0.08 0"/>
<feBlend mode="normal" in2="BackgroundImageFix" result="effect1_dropShadow_3:1198"/>
<feBlend mode="normal" in="SourceGraphic" in2="effect1_dropShadow_3:1198" result="shape"/>
</filter>
</defs>
</svg>
